<svg xmlns="http://www.w3.org/2000/svg" xmlns:xlink="http://www.w3.org/1999/xlink" viewBox="0 0 693.06 268.87"><defs><style>.cls-1,.cls-26,.cls-45,.cls-66,.cls-69,.cls-70,.cls-71,.cls-72{fill:none;}.cls-2,.cls-21{isolation:isolate;}.cls-3{fill:url(#linear-gradient);}.cls-4,.cls-78{fill:#79e2f2;}.cls-5{fill:#0065ff;}.cls-6{fill:#008da6;}.cls-14,.cls-6{opacity:0.1;}.cls-7{fill:#2684ff;}.cls-8{fill:url(#linear-gradient-2);}.cls-21,.cls-9{fill:#6554c0;}.cls-10{fill:url(#linear-gradient-3);}.cls-11,.cls-47{fill:#998dd9;}.cls-11{opacity:0.63;}.cls-12{fill:#fffae5;}.cls-13{fill:#00c7e5;}.cls-14,.cls-27{fill:#091e42;}.cls-15{fill:#deebff;}.cls-16{fill:#b2d4ff;}.cls-17{fill:#8777d9;}.cls-18{fill:#4c9aff;}.cls-19{fill:url(#linear-gradient-4);}.cls-20{fill:#b3f5ff;}.cls-21{opacity:0.5;}.cls-22{fill:url(#linear-gradient-5);}.cls-23{fill:url(#linear-gradient-6);}.cls-24{fill:#ff8b00;}.cls-25{opacity:0.4;}.cls-26{stroke:#b2d4ff;stroke-width:0.89px;}.cls-26,.cls-45,.cls-66,.cls-69,.cls-70,.cls-71,.cls-72{stroke-miterlimit:10;}.cls-28{fill:#713c1a;}.cls-29{fill:url(#linear-gradient-7);}.cls-30{fill:#c1c7d0;}.cls-31{fill:#253858;opacity:0.49;mix-blend-mode:multiply;}.cls-32{fill:url(#linear-gradient-8);}.cls-33{fill:url(#linear-gradient-9);}.cls-34{fill:#cea28b;}.cls-35{fill:url(#linear-gradient-10);}.cls-36{fill:#ffc400;}.cls-37{fill:#403294;}.cls-38,.cls-48{fill:#5243aa;}.cls-39{fill:#4a3222;}.cls-40{fill:url(#linear-gradient-11);}.cls-41{fill:#00b8d9;}.cls-42{fill:url(#linear-gradient-12);}.cls-43,.cls-50{fill:#eae6ff;}.cls-44,.cls-51{fill:#c0b6f2;}.cls-45{stroke:#79e2f2;stroke-width:1.56px;}.cls-46{fill:#fff;}.cls-48,.cls-49,.cls-50{opacity:0.3;}.cls-49{fill:url(#linear-gradient-13);}.cls-51{opacity:0.7;}.cls-52{clip-path:url(#clip-path);}.cls-53{fill:url(#linear-gradient-14);}.cls-54{fill:url(#New_Gradient_Swatch_14);}.cls-55{fill:#cea188;}.cls-56{fill:#243759;}.cls-57{fill:url(#Y400-Y200_5);}.cls-58{fill:url(#Y400-Y200_5-2);}.cls-59{fill:#ecc19c;}.cls-60{fill:url(#linear-gradient-15);}.cls-61{fill:url(#linear-gradient-16);}.cls-62{fill:#172b4d;}.cls-63{fill:url(#linear-gradient-17);}.cls-64{fill:url(#linear-gradient-18);}.cls-65{fill:#ffab00;}.cls-66{stroke:#091e42;stroke-width:1.1px;}.cls-67{fill:url(#linear-gradient-19);}.cls-68{fill:url(#linear-gradient-20);}.cls-69{stroke:#0065ff;}.cls-69,.cls-70,.cls-71{stroke-width:1.11px;}.cls-70{stroke:#ffc400;}.cls-71{stroke:#5243aa;}.cls-72{stroke:#ff8b00;stroke-width:2px;}.cls-73{fill:#ffe380;}.cls-73,.cls-78{fill-rule:evenodd;}.cls-74{fill:#0052cc;}.cls-75{fill:#ff991f;}.cls-76{fill:#42526e;}.cls-77{fill:url(#linear-gradient-21);}</style><linearGradient id="linear-gradient" x1="-442.25" y1="13.45" x2="-382.33" y2="141.6" gradientTransform="translate(966.02 318.11) rotate(35.31)" gradientUnits="userSpaceOnUse"><stop offset="0" stop-color="#deebff" stop-opacity="0.6"/><stop offset="0.13" stop-color="#e2eeff" stop-opacity="0.52"/><stop offset="1" stop-color="#fff" stop-opacity="0"/></linearGradient><linearGradient id="linear-gradient-2" x1="20.14" y1="109.27" x2="80.88" y2="239.18" gradientTransform="translate(166.98 48.46) rotate(5.44)" gradientUnits="userSpaceOnUse"><stop offset="0" stop-color="#b2d4ff" stop-opacity="0.6"/><stop offset="0.13" stop-color="#bcdaff" stop-opacity="0.52"/><stop offset="1" stop-color="#fff" stop-opacity="0"/></linearGradient><linearGradient id="linear-gradient-3" x1="244.88" y1="283.99" x2="364.47" y2="164.4" gradientUnits="userSpaceOnUse"><stop offset="0" stop-color="#c0b6f2"/><stop offset="0.05" stop-color="#c3baf3"/><stop offset="0.4" stop-color="#d9d2fa"/><stop offset="0.73" stop-color="#e6e1fe"/><stop offset="1" stop-color="#eae6ff"/></linearGradient><linearGradient id="linear-gradient-4" x1="35.23" y1="225.45" x2="109.3" y2="299.51" gradientUnits="userSpaceOnUse"><stop offset="0" stop-color="#deebff" stop-opacity="0.6"/><stop offset="0.29" stop-color="#dfebff" stop-opacity="0.59"/><stop offset="0.45" stop-color="#e0ecff" stop-opacity="0.56"/><stop offset="0.58" stop-color="#e3eeff" stop-opacity="0.51"/><stop offset="0.69" stop-color="#e7f1ff" stop-opacity="0.43"/><stop offset="0.79" stop-color="#edf4ff" stop-opacity="0.33"/><stop offset="0.88" stop-color="#f4f8ff" stop-opacity="0.21"/><stop offset="0.97" stop-color="#fbfdff" stop-opacity="0.06"/><stop offset="1" stop-color="#fff" stop-opacity="0"/></linearGradient><linearGradient id="linear-gradient-5" x1="87.66" y1="267.91" x2="160.98" y2="194.59" gradientUnits="userSpaceOnUse"><stop offset="0" stop-color="#fff"/><stop offset="1" stop-color="#b3f5ff"/></linearGradient><linearGradient id="linear-gradient-6" x1="3023.3" y1="81.88" x2="3052.81" y2="52.37" gradientTransform="matrix(-0.95, -0.3, -0.3, 0.95, 3338.16, 1051.41)" gradientUnits="userSpaceOnUse"><stop offset="0" stop-color="#ff991f"/><stop offset="0.09" stop-color="#ff9d18"/><stop offset="0.21" stop-color="#ffa805"/><stop offset="0.23" stop-color="#ffab00"/><stop offset="0.27" stop-color="#ffaf00"/><stop offset="0.5" stop-color="#ffbe00"/><stop offset="0.68" stop-color="#ffc400"/></linearGradient><linearGradient id="linear-gradient-7" x1="251.57" y1="100.96" x2="266.39" y2="100.96" gradientUnits="userSpaceOnUse"><stop offset="0.05" stop-color="#79e2f2"/><stop offset="0.69" stop-color="#9feffb"/><stop offset="1" stop-color="#b3f5ff"/></linearGradient><linearGradient id="linear-gradient-8" x1="238.45" y1="110.11" x2="248.87" y2="110.11" xlink:href="#linear-gradient-7"/><linearGradient id="linear-gradient-9" x1="244.73" y1="123.52" x2="277.77" y2="123.52" gradientUnits="userSpaceOnUse"><stop offset="0.05" stop-color="#00c7e5"/><stop offset="0.34" stop-color="#02c8e5"/><stop offset="0.5" stop-color="#0ac9e6"/><stop offset="0.64" stop-color="#18cce8"/><stop offset="0.75" stop-color="#2cd1ea"/><stop offset="0.85" stop-color="#45d6ec"/><stop offset="0.95" stop-color="#64ddf0"/><stop offset="1" stop-color="#79e2f2"/></linearGradient><linearGradient id="linear-gradient-10" x1="529.72" y1="186.11" x2="544.73" y2="186.11" gradientUnits="userSpaceOnUse"><stop offset="0" stop-color="#8777d9"/><stop offset="0.45" stop-color="#8575d7"/><stop offset="0.7" stop-color="#7d6dd2"/><stop offset="0.89" stop-color="#705fc8"/><stop offset="1" stop-color="#6554c0"/></linearGradient><linearGradient id="linear-gradient-11" x1="3635.59" y1="-98.76" x2="3627.03" y2="-87.88" gradientTransform="matrix(-0.73, -0.69, -0.69, 0.73, 3055.6, 2753.07)" gradientUnits="userSpaceOnUse"><stop offset="0" stop-color="#79e2f2"/><stop offset="0.23" stop-color="#76e1f2"/><stop offset="0.41" stop-color="#6cdff1"/><stop offset="0.57" stop-color="#5cdcef"/><stop offset="0.72" stop-color="#45d6ec"/><stop offset="0.86" stop-color="#28d0e9"/><stop offset="0.99" stop-color="#04c8e5"/><stop offset="1" stop-color="#00c7e5"/></linearGradient><linearGradient id="linear-gradient-12" x1="3390.99" y1="214.37" x2="3390.99" y2="187.74" gradientTransform="matrix(-1, 0, 0, 1, 3887.08, 0)" gradientUnits="userSpaceOnUse"><stop offset="0" stop-color="#00c7e5"/><stop offset="0.77" stop-color="#79e2f2"/></linearGradient><linearGradient id="linear-gradient-13" x1="284.35" y1="266.89" x2="284.35" y2="247.2" gradientUnits="userSpaceOnUse"><stop offset="0.12" stop-color="#eae6ff"/><stop offset="1" stop-color="#998dd9"/></linearGradient><clipPath id="clip-path"><rect class="cls-1" x="310.23" y="51.07" width="117.48" height="83.48" transform="translate(737.94 185.62) rotate(-180)"/></clipPath><linearGradient id="linear-gradient-14" x1="599.76" y1="134.55" x2="599.76" y2="126.67" gradientTransform="translate(-214.94)" gradientUnits="userSpaceOnUse"><stop offset="0" stop-color="#4c9aff"/><stop offset="1" stop-color="#0065ff"/></linearGradient><linearGradient id="New_Gradient_Swatch_14" x1="595.41" y1="130.34" x2="614.45" y2="130.34" gradientTransform="translate(-214.94)" gradientUnits="userSpaceOnUse"><stop offset="0" stop-color="#0052cc"/><stop offset="1" stop-color="#2684ff"/></linearGradient><linearGradient id="Y400-Y200_5" x1="-1658.59" y1="1697.2" x2="-1647.94" y2="1686.55" gradientTransform="matrix(-0.27, 0.96, 0.96, 0.27, -1723.15, 1270.53)" gradientUnits="userSpaceOnUse"><stop offset="0" stop-color="#ff991f"/><stop offset="1" stop-color="#ffc400"/></linearGradient><linearGradient id="Y400-Y200_5-2" x1="-1643.77" y1="2092.58" x2="-1631.97" y2="2080.77" gradientTransform="matrix(-0.04, 1, 1, 0.04, -1798, 1677.78)" xlink:href="#Y400-Y200_5"/><linearGradient id="linear-gradient-15" x1="-1632.51" y1="2071.71" x2="-1622.23" y2="2071.71" gradientTransform="matrix(-0.05, 1, 1, 0.05, -1818.17, 1619.07)" gradientUnits="userSpaceOnUse"><stop offset="0" stop-color="#ff8b00"/><stop offset="0.62" stop-color="#ff991f"/></linearGradient><linearGradient id="linear-gradient-16" x1="-308.94" y1="121.16" x2="-292.37" y2="104.59" gradientTransform="matrix(-1, 0, 0, 1, 53.51, 0)" xlink:href="#linear-gradient-15"/><linearGradient id="linear-gradient-17" x1="-303.7" y1="100.94" x2="-298.02" y2="100.94" gradientTransform="matrix(-1, 0, 0, 1, 53.51, 0)" gradientUnits="userSpaceOnUse"><stop offset="0" stop-color="#ff8b00"/><stop offset="0.7" stop-color="#ff991f"/></linearGradient><linearGradient id="linear-gradient-18" x1="1144.53" y1="514.84" x2="1167.72" y2="514.84" gradientTransform="translate(-891.71 222.84) rotate(-29.58)" gradientUnits="userSpaceOnUse"><stop offset="0.38" stop-color="#ff991f"/><stop offset="1" stop-color="#ff8b00"/></linearGradient><linearGradient id="linear-gradient-19" x1="535.96" y1="93.1" x2="579.11" y2="93.1" gradientTransform="matrix(1, 0, 0, 1, 0, 0)" xlink:href="#linear-gradient-6"/><linearGradient id="linear-gradient-20" x1="5674.44" y1="1162.24" x2="5674.67" y2="1142" gradientTransform="matrix(-0.99, -0.17, -0.17, 0.99, 6292.07, 27.51)" gradientUnits="userSpaceOnUse"><stop offset="0" stop-color="#00c7e5"/><stop offset="1" stop-color="#b3f5ff"/></linearGradient><linearGradient id="linear-gradient-21" x1="1037.41" y1="1026.91" x2="1037.41" y2="966.67" gradientTransform="matrix(0.97, -0.23, 0.23, 0.97, -1034.13, -510.16)" xlink:href="#Y400-Y200_5"/></defs><g class="cls-2"><g id="Layer_2" data-name="Layer 2"><g id="Layer_1-2" data-name="Layer 1"><path class="cls-3" d="M660.55,112.89a48.3,48.3,0,0,0-55.23-.36,59.57,59.57,0,0,0-21.39-27.76,60.57,60.57,0,0,0-95.12,52.4l87.88,50.48a60.48,60.48,0,0,0,14-10.14,47.9,47.9,0,0,0,13.63,14.87,48.69,48.69,0,0,0,56.23-79.49Z"/><rect class="cls-4" x="306.2" y="31.13" width="150.13" height="148.92"/><rect class="cls-5" x="601.69" y="118.74" width="27.48" height="148.65"/><polygon class="cls-6" points="474.43 124.53 455.01 124.53 436.85 144.76 445.22 144.76 445.22 180.05 456.32 180.05 456.32 144.7 474.43 124.53"/><rect class="cls-7" x="456.32" y="118.74" width="150.13" height="150.13"/><path class="cls-8" d="M251.55,162.13a48.7,48.7,0,0,0-48.42,27.2,60.53,60.53,0,0,0-89.39,79.39H232.61c3.07-4.81,2.66-10.34,9.71-9.66a48.68,48.68,0,1,0,9.23-96.93Z"/><rect class="cls-9" x="250.35" y="179.67" width="133.29" height="89.06"/><rect class="cls-10" x="229.61" y="179.67" width="150.13" height="89.06"/><rect class="cls-11" x="229.61" y="179.67" width="150.13" height="14.14"/><rect class="cls-4" x="400.09" y="221.81" width="56.23" height="46.91"/><rect class="cls-5" x="477.03" y="157.42" width="99.66" height="67.73"/><rect class="cls-12" x="484.08" y="157.42" width="92.61" height="67.73"/><rect class="cls-5" x="461.64" y="224.39" width="121.71" height="5.31"/><rect class="cls-13" x="329.8" y="71.42" width="98.68" height="63.12"/><rect class="cls-12" x="336.78" y="71.42" width="91.7" height="63.12"/><rect class="cls-13" x="314.41" y="134.54" width="121.71" height="5.31"/><polygon class="cls-6" points="456.16 31.13 306.36 31.13 306.36 56.85 436.71 56.85 456.16 37.1 456.16 31.13"/><polygon class="cls-14" points="606.45 118.74 456.65 118.74 456.65 144.46 587 144.46 606.45 124.72 606.45 118.74"/><polygon class="cls-15" points="456.46 118.74 606.45 118.74 586.85 138.97 436.85 138.97 456.46 118.74"/><polygon class="cls-16" points="470.84 118.74 490.25 118.74 472.09 138.97 452.68 138.97 470.84 118.74"/><polygon class="cls-16" points="503.08 118.74 522.5 118.74 504.34 138.97 484.93 138.97 503.08 118.74"/><polygon class="cls-16" points="535.33 118.74 554.75 118.74 536.59 138.97 517.17 138.97 535.33 118.74"/><polygon class="cls-16" points="567.58 118.74 587 118.74 568.84 138.97 549.42 138.97 567.58 118.74"/><rect class="cls-13" x="456.32" y="31.13" width="28.99" height="87.61"/><rect class="cls-9" x="484.93" y="59.37" width="59.37" height="59.37"/><rect class="cls-17" x="467.55" y="59.37" width="59.37" height="59.37"/><rect class="cls-5" x="229.35" y="120.3" width="59.37" height="59.37"/><rect class="cls-18" x="211.98" y="120.3" width="59.37" height="59.37"/><rect class="cls-4" x="501.5" width="59.37" height="59.37"/><path class="cls-19" d="M89.05,222a51.22,51.22,0,0,0-45.69,28A27.49,27.49,0,0,0,0,268.72H140.08A51.24,51.24,0,0,0,89.05,222Z"/><rect class="cls-20" x="484.13" width="59.37" height="59.37"/><polygon class="cls-13" points="306.33 31.13 456.32 31.13 436.72 51.36 286.72 51.36 306.33 31.13"/><polygon class="cls-20" points="320.71 31.13 340.12 31.13 321.96 51.36 302.55 51.36 320.71 31.13"/><polygon class="cls-20" points="352.96 31.13 372.37 31.13 354.21 51.36 334.8 51.36 352.96 31.13"/><polygon class="cls-20" points="385.21 31.13 404.62 31.13 386.46 51.36 367.05 51.36 385.21 31.13"/><polygon class="cls-20" points="417.45 31.13 436.87 31.13 418.71 51.36 399.3 51.36 417.45 31.13"/><path class="cls-9" d="M497,105.89a3.94,3.94,0,0,0-4.88-2.65l-.09,0a3.92,3.92,0,1,0,5,2.61Z"/><path class="cls-21" d="M498.87,84.24l4.82-8.62A3.89,3.89,0,0,1,501,74.11l-4.88,8.74A6,6,0,0,1,498.87,84.24Z"/><path class="cls-9" d="M503.69,75.62a3.71,3.71,0,0,0,1.54-.14,3.93,3.93,0,1,0-4.88-2.65,3.8,3.8,0,0,0,.66,1.28A3.89,3.89,0,0,0,503.69,75.62Z"/><path class="cls-21" d="M492,103.28l.09,0a4,4,0,0,1,3,.31l.8-9a6,6,0,0,1-3.06-.31Z"/><path class="cls-21" d="M509.12,91l-8.25-2.25a6,6,0,0,1-.82,3l8.5,2.32A6,6,0,0,1,509.12,91Z"/><path class="cls-9" d="M508.77,95.27a6.09,6.09,0,1,0-.22-1.25A6.07,6.07,0,0,0,508.77,95.27Z"/><path class="cls-21" d="M490.56,84.59l-8.74-4.74a3.9,3.9,0,0,1-1.47,2.7l8.74,4.74A6,6,0,0,1,490.56,84.59Z"/><path class="cls-9" d="M500.05,91.7a6,6,0,0,0,.82-3,6.14,6.14,0,0,0-.24-1.74,6,6,0,0,0-4.5-4.15,5.85,5.85,0,0,0-2.93.12,5.92,5.92,0,0,0-2.64,1.62,6,6,0,0,0-1.47,2.7,6,6,0,0,0,6.76,7.3,6.52,6.52,0,0,0,.74-.16A5.92,5.92,0,0,0,500.05,91.7Z"/><path class="cls-9" d="M481.82,79.85a3.8,3.8,0,0,0-.14-1.49A3.93,3.93,0,1,0,479,83.24a3.78,3.78,0,0,0,1.32-.69A3.9,3.9,0,0,0,481.82,79.85Z"/><path class="cls-14" d="M632.7,258.45a39,39,0,0,0-72.39-7.37A16.88,16.88,0,0,0,536,266.22a16.53,16.53,0,0,0,.21,2.65h97.94Z"/><path class="cls-18" d="M102.26,193.78,116,268.72h5.66a5.24,5.24,0,0,0,5.46-4.89,5.26,5.26,0,0,1,5.47-4.9h21.15a8.27,8.27,0,0,1,7.26,4.9,8.3,8.3,0,0,0,7.26,4.89H174l-13.76-74.94Z"/><path class="cls-1" d="M88.48,268.72h5.66a8.27,8.27,0,0,0,7.26-4.89,8.29,8.29,0,0,1,7.26-4.9h21.16a5.24,5.24,0,0,1,5.46,4.9,5.25,5.25,0,0,0,5.47,4.89h5.66l13.76-74.94H102.24Z"/><path class="cls-22" d="M146.41,268.72h-5.66a5.25,5.25,0,0,1-5.47-4.89,5.24,5.24,0,0,0-5.46-4.9H108.66a8.29,8.29,0,0,0-7.26,4.9,8.27,8.27,0,0,1-7.26,4.89H88.48l13.76-74.94h57.93Z"/><polygon class="cls-7" points="107.79 236.86 127.4 236.86 126.88 239.25 138.26 233.41 129.43 227.58 128.9 229.97 109.29 229.97 107.79 236.86"/><path class="cls-4" d="M140.77,216.74a3.08,3.08,0,0,0-3.09-3.94,4.65,4.65,0,0,0-1.89.43,5.32,5.32,0,0,0-5.48-6.3,9.07,9.07,0,0,0-7.73,5,3.94,3.94,0,0,0-1.53-.29,5.93,5.93,0,0,0-5.51,4.52,5.64,5.64,0,0,1-1.09,2.24h0l0,.09a5.83,5.83,0,0,1-4.35,2.19h16.64c.2,0,.41,0,.62,0s.43,0,.64,0h8.3A5.23,5.23,0,0,0,140.77,216.74Z"/><path class="cls-18" d="M134.71,217.77a3.11,3.11,0,0,0-.43,0,3.72,3.72,0,0,0-3.92-3.84,5.49,5.49,0,0,0-2,.38,6.64,6.64,0,0,0-3.62,3.5,3.2,3.2,0,0,0-.63-.07,3.87,3.87,0,0,0-3.59,2.92v0a2.31,2.31,0,0,0,2.31,3h10.59a3.88,3.88,0,0,0,3.6-3,1.62,1.62,0,0,0,0-.19A2.29,2.29,0,0,0,134.71,217.77Z"/><circle class="cls-23" cx="420.83" cy="200.86" r="20.87"/><circle class="cls-24" cx="431.74" cy="200.42" r="2.15"/><circle class="cls-24" cx="412.35" cy="194.29" r="2.15"/><path class="cls-24" d="M418.53,209.71a13,13,0,0,1-7.81-6.78l18.1,5.71A13,13,0,0,1,418.53,209.71Z"/><circle class="cls-7" cx="251.48" cy="171.48" r="2.63"/><path class="cls-7" d="M256.75,138a19.16,19.16,0,1,0-17.07,27.37A6.85,6.85,0,0,1,246,169.2h0a.91.91,0,0,0,1.22.44l5.49-2.6a.93.93,0,0,0,.43-1.23h0a6.84,6.84,0,0,1,1-7.32A19.17,19.17,0,0,0,256.75,138Z"/><rect class="cls-5" x="246.94" y="168.13" width="7.91" height="4.38" rx="0.92" transform="translate(-48.78 123.9) rotate(-25.37)"/><g class="cls-25"><path class="cls-26" d="M251.52,167.6l-6.76-14.27a1.94,1.94,0,0,1,.92-2.59h0a2,2,0,0,1,2.6.92h0a2,2,0,0,1-.92,2.6l-6.9,3.27a2,2,0,0,1-2.6-.93h0a2,2,0,0,1,.93-2.59h0a2,2,0,0,1,2.6.92l6.76,14.27"/></g><path class="cls-14" d="M266.12,121a6.4,6.4,0,0,1,1.45,5.17c-1.17,5.28-11,7.59-22,5.16-8.62-1.9-15.39-6.16-17.35-10.45"/><path class="cls-27" d="M255.9,86.42c2.21,3.84-2.66,10.94-6.45,11.15a4.39,4.39,0,0,1-2.18-.49,5.24,5.24,0,0,1-2.2-3.48,8.27,8.27,0,0,1,2.08-7.85A6,6,0,0,1,250.76,84,5.6,5.6,0,0,1,255.9,86.42Z"/><path class="cls-28" d="M239,119.09a12.16,12.16,0,0,1-1.6.41c-.52.1-1,.27-1.54.37,0,0-.53.11-.52.23s.06.06.05.09-.18,0-.26.06a.09.09,0,0,0,0,.07c0,.08.11.11.1.17s0,0-.12.1-.15.1-.15.16.15.1.15.19-.21.13-.23.26.11.21.15.23c.35.28,1.18-.06,2.11-.18a5.65,5.65,0,0,1,1.29,0,3.94,3.94,0,0,1-.8.58,1.41,1.41,0,0,0-.6.45.47.47,0,0,0-.12.35.46.46,0,0,0,.09.23,8.36,8.36,0,0,0,1.27-.55c1-.52,2.06-1.09,2.06-1.83S239.18,119.19,239,119.09Z"/><path class="cls-27" d="M254.53,97.54l-2.43,1-2.64-6.12,4.8-2.08a5.58,5.58,0,0,0,2,2.4c1.53,1,2.68.45,4,.94,3,1.12,5.27,6.92,2.95,10a4.79,4.79,0,0,1-4.57,1.84C256,105,253.89,101.69,254.53,97.54Z"/><path class="cls-28" d="M264,91.41h2.84a0,0,0,0,1,0,0v2.84a0,0,0,0,1,0,0h-1.34A1.51,1.51,0,0,1,264,92.75V91.41A0,0,0,0,1,264,91.41Z" transform="translate(40.26 -75.59) rotate(17.52)"/><path class="cls-29" d="M251.62,101.52c1.95,1.47,3.64,2.61,4.94,3.45a30.26,30.26,0,0,0,3.76,2.07c1.46.67,2.18,1,2.59.89,1.36-.39,1.51-2.89,2.72-9.5.31-1.7.58-3.08.75-3.92.07-.38-2.33-.82-2.25-.33l-2.82,8.61-5.91-4.67a4.33,4.33,0,0,0-1.13-.08,3.11,3.11,0,0,0-1.93.79A3.16,3.16,0,0,0,251.62,101.52Z"/><path class="cls-20" d="M258.79,104c-.29-1.43-1-1.23-1.94-3.62a5.1,5.1,0,0,0-1.09-2,4.1,4.1,0,0,0-1.6-1l-3.39-.11c-.48.21-1.1.46-1.83.75a11.24,11.24,0,0,1-2.15.68h-.06a3.64,3.64,0,0,0-1.81,1,3.16,3.16,0,0,0-1,1.82h0a9.41,9.41,0,0,0,.87,5.15,20.54,20.54,0,0,1,1.29,6.44l-.92,2.27,13.47,1.69c-1.29-4.46-1-7.43-.38-9.36C259.08,105.09,259,104.83,258.79,104Z"/><path class="cls-28" d="M254.29,97.3a6.49,6.49,0,0,1-2.11.73,6.33,6.33,0,0,1-2.63-.11,5,5,0,0,0,.37-1.42,25.69,25.69,0,0,0,0-2.7c1.4,0,2.71.84,4.11.8Z"/><path class="cls-28" d="M254.89,86.61a13.11,13.11,0,0,1,.44,1.41,13.6,13.6,0,0,1,.35,2c0,.1.15.28.28.49.42.64.85,1,.73,1.18,0,0-.5.2-.59.27-.57.44-.06,1.57-.42,2.24-.77,1.42-5.7.59-5.8-.38,0-.42.89-.51,1.06-1.39.06-.33.18-1.64.26-1.77a1,1,0,0,1,.15-.21A22.28,22.28,0,0,1,253.26,89a4.17,4.17,0,0,0,1.19-1.11A3,3,0,0,0,254.89,86.61Z"/><path class="cls-28" d="M246,120.35a6.1,6.1,0,0,0,3.11,2.21,6.41,6.41,0,0,0,3.83,0l14.58-4.39c.11,1.2.28,2.49.52,3.86s.56,2.72,1,4.36c.28,1.12,1.38,7,1.8,8.74,1.1-.2,1.48.52,2.64.26.51-.11,0-.48.5-.6-.41-2.19.11-10.1-.66-13.73-1.36-6.39-1.67-7-2.27-7.58-1.59-1.53-4-1.79-15.6,0-4.16.67-7.64,1.31-10.18,1.8a4.66,4.66,0,0,0-.35,1.33A5.33,5.33,0,0,0,246,120.35Z"/><path class="cls-28" d="M252.89,122.61c1.74.15,3.62.24,5.62.23,1.27,0,2.48,0,3.64-.12l.93,0c-.1.47-.19,1-.28,1.53,0,0-.15.91-.25,1.76-.14,1.17.55,9.75.85,14.11.39.23.11.31.81.49.92.24,1.17-.43,1.68-.49.91-4.18,2.44-12.83,3.35-17l.17-3.13a3.49,3.49,0,0,0-1.72-2.64,4.26,4.26,0,0,0-2.22-.51Z"/><path class="cls-30" d="M262.74,138.54,262,145l1.33.52a.66.66,0,0,1,.51-.16.67.67,0,0,1,.53.51c.33.19.72.41,1.18.62a11,11,0,0,0,1.58.58,11.35,11.35,0,0,0,2.67.39,2.1,2.1,0,0,0-.2-.89,2.8,2.8,0,0,0-1-1,5.49,5.49,0,0,1-2.15-2.18,3.06,3.06,0,0,1-.19-1,5.79,5.79,0,0,1,.62-3Z"/><path class="cls-30" d="M270.12,134.79l1.86,6.26,1.43-.05a.59.59,0,0,1,.33-.51.61.61,0,0,1,.76.43,9.85,9.85,0,0,0,3,0,10.24,10.24,0,0,0,2.53-.76,2.06,2.06,0,0,0-.46-.67c-1.12-1.12-2.85-.21-4-1.26a3.09,3.09,0,0,1-.74-1.29,9.33,9.33,0,0,1-.61-3Z"/><path class="cls-31" d="M264,117.55l-9,4.1c-.45.38-.91.71-1.36,1,1.41.1,2.9.17,4.48.17A17.45,17.45,0,0,0,264,117.55Z"/><path class="cls-32" d="M243.78,101.32,241,109.65l-2.58,8.75a1.71,1.71,0,0,0,.35,1.06,6.08,6.08,0,0,0,1.63,1.37c1.17-2.79,2.16-6.48,3.76-9.46l4.15-7.7a2.8,2.8,0,0,0-.12-3.43,2.59,2.59,0,0,0-1-.7A2.69,2.69,0,0,0,243.78,101.32Z"/><path class="cls-4" d="M252,96.24a9,9,0,0,1-2.35,0v.3a7.56,7.56,0,0,1-.31,1.76,6.56,6.56,0,0,0,2.91.25,5.35,5.35,0,0,0,2.09-.82c-.09-.73-.18-1.46-.26-2.19A6.66,6.66,0,0,1,252,96.24Z"/><polygon class="cls-18" points="272.41 92.15 258.15 92.83 257.68 91.67 268.4 82.25 272.41 92.15"/><path class="cls-33" d="M261.15,134.84c1.29-1.22,3.5-1.44,7.36-1.58s9.26-5,9.26-5-4.51-12.44-6.8-14.7c-3.29-3.24-18.08.46-18.08.46l-7.7,1.39s-2.79,6.19,5.32,8.41c4.73,1.3,10.8-1,10.8-1S261.15,127,261.15,134.84Z"/><path class="cls-34" d="M531.74,173.38,529,171.22a12.82,12.82,0,0,1-1-1.69c-.23-.45-.39-.83-.24-1.17a.82.82,0,0,1,.24-.29.52.52,0,0,1-.21-.5.5.5,0,0,1,.35-.42.48.48,0,0,1,.5.17.52.52,0,0,1,.28-.23c.47-.15,1.21.53,1.86,1.68,0-.71.16-1.26.5-1.36a.44.44,0,0,1,.3,0l.3,1.75a3.93,3.93,0,0,1,.54,1,3.82,3.82,0,0,1,.19,1.88Z"/><path class="cls-35" d="M544.73,196.09a106.39,106.39,0,0,0-8.29-10.74s-1.25-8.37-3.55-13.29c-.77,0-2.2,0-3.17,0,.56,6,2.5,15.63,2.5,15.63s5.65,8,8.09,12.43Z"/><circle class="cls-36" cx="550.59" cy="204.78" r="8.05"/><path class="cls-37" d="M552.77,224.39c-.12-1.12-.24-2.24-.35-3.35a10.49,10.49,0,0,0,.26-4.25,8.18,8.18,0,0,0-1.43-3.88c-2.27-2.71-8.63-2.79-11.07.05-2,2.34-1.4,6.26.06,11.43Z"/><path class="cls-38" d="M535.58,224.39c.11-.76.22-1.4.34-2.13,1.7-10.22,3.15-12.78,5.42-13.8a7.2,7.2,0,0,1,5.54.18,8.1,8.1,0,0,1,4.32,7c.09,2.06-.75,2.56-3.6,8.29-.16.32-.11.2-.25.51Z"/><path class="cls-36" d="M544.51,183.3a8.21,8.21,0,0,0-3.46,4.42,7,7,0,0,0,.18,4.74,5.24,5.24,0,0,0,1.15,1.62,3.71,3.71,0,0,0,1.55,1c2.29.31,5.55-8.06,4.46-11.55a1.83,1.83,0,0,0-.84-1.18C546.6,181.84,545.28,182.76,544.51,183.3Z"/><path class="cls-17" d="M552.86,217.47a14,14,0,0,1-17.34-3.39,11.5,11.5,0,0,0,1.75-2.38,12.72,12.72,0,0,0,1.54-7.59c-.24-1.8-.74-2.09-.52-3.41.1-.6.25-.85,1.56-3.56,1-2,1-2.12,1.24-2.35s1.34-1.17,4.72-.74a18,18,0,0,1,8.61,3.77,55.76,55.76,0,0,1-2,5.82c-1.21,3.05-2,4.29-1.74,6.28a24.17,24.17,0,0,0,1,3.14A36,36,0,0,1,552.86,217.47Z"/><path class="cls-34" d="M541.75,188a1.39,1.39,0,0,0,.26.36,4.55,4.55,0,0,0,.35.37c-.06.28-.11.57-.16.88a14.94,14.94,0,0,0-.16,1.66,11,11,0,0,0,1.62.67,8.65,8.65,0,0,0,3.1.55,5.81,5.81,0,0,0,2.13-.35,4.63,4.63,0,0,0-2.48-8.87,3.92,3.92,0,0,0-2.38,1.39c-.33.47-.22.55-.78,1.34-.13.19-.3.43-.55.73C542.09,187.41,541.67,187.67,541.75,188Z"/><path class="cls-34" d="M549.58,190.37a5,5,0,0,0-1,4.57c-.87.37-1.74.76-2.63,1.17-1.28.59-2.51,1.2-3.69,1.8.67-1.08,1.34-2.17,2-3.26.07-.4.13-.81.18-1.24.11-.88.18-1.73.22-2.53Z"/><path class="cls-36" d="M545,187.3c.33.66.63.44,1,1,.7,1.26-.52,2.39.13,3.55.32.55.8.32,1,.84.34.78-.6,1.34-.56,2.55a2.92,2.92,0,0,0,1.39,2.26,3,3,0,0,0,2.22.32c2-.23,1.24,3.22,3.29,3,.21.67,3.27-2.24,3.4-1.36a15.07,15.07,0,0,1,.11,3.73c.17-.11,4.15-2.56,4-6.41a8.13,8.13,0,0,0-2.19-4.66c-1.24-1.14-2.17-1-3.29-2.45a6.87,6.87,0,0,1-1.3-2.61,8.92,8.92,0,0,0-2.24-3.65,6.59,6.59,0,0,0-4-1.48c-.92-.07-2.68-.22-3.51.83a2,2,0,0,0-.45,1.57,2.19,2.19,0,0,0,.32.56C545,185.83,544.59,186.45,545,187.3Z"/><path class="cls-34" d="M565.69,176.42l2.87-2a12.92,12.92,0,0,0,1.14-1.61c.26-.43.45-.8.32-1.15a.71.71,0,0,0-.22-.31.53.53,0,0,0,.25-.49.5.5,0,0,0-.32-.44.51.51,0,0,0-.51.14.62.62,0,0,0-.27-.25c-.46-.18-1.24.45-2,1.55.1-.71-.08-1.27-.41-1.4a.46.46,0,0,0-.29,0l-.42,1.72a4,4,0,0,0-.61.94,3.91,3.91,0,0,0-.32,1.86Z"/><path class="cls-17" d="M547.86,198.65c3.11-4,5.45-5.26,8.56-9.23,2.88-4.61,5.65-10.46,8.53-15.07.72.38,2.32.56,3,.93-1.75,4.35-6.39,16-6.39,16s-6.38,7.15-9.35,11.26Z"/><path class="cls-39" d="M491.41,187.82a5.2,5.2,0,0,0,2.87,3.53,5,5,0,0,0,5.17-.83,14.37,14.37,0,0,1-.61-4.58,13.7,13.7,0,0,1,.59-3.62l-6.9,1.7a15.65,15.65,0,0,1,.1,2.12c0,.9-.12,1.24-.38,1.45A1.18,1.18,0,0,1,491.41,187.82Z"/><path class="cls-39" d="M467.73,180.88l-2.65-4.37a.47.47,0,0,0-.83-.12.61.61,0,0,0-.58-.16c-.26.08-.13.53-.11.82-.11,0-.45-.25-.6-.15s0,1.17.25,1.62c-.06,0-.12.4-.25.61s.15.88.17.92c.45,1.42.65,2,.65,2a3.28,3.28,0,0,0,1.13,1.42,4.49,4.49,0,0,0,.82.55c.51.54.93.69,1.87-.23C467.64,182.8,467.68,181.84,467.73,180.88Z"/><path class="cls-39" d="M476.68,189.49a29.53,29.53,0,0,0-3-2.88c-2.09-1.75-3.38-2.36-5.59-4.34-.84-.76-1.48-1.43-1.87-1.85-.39.84-.77,1.68-1.16,2.53a83.42,83.42,0,0,0,5.53,8.18,11.79,11.79,0,0,0,2.21,2.21c1,.76,3.66,2.77,5.17,1.81S477.33,189.4,476.68,189.49Z"/><path class="cls-40" d="M473.07,193.4a4.33,4.33,0,0,0,1.19,1.32,5.89,5.89,0,0,0,3.93.71c2.64-.14,8.09,1.28,9.72,1.18l3-8.8a19.6,19.6,0,0,0-3.28.39c-4.83,1-5,.75-6.54.79-3.12.08-3.6-.5-4.88.06C474.46,189.83,473.55,191.79,473.07,193.4Z"/><path class="cls-41" d="M486.37,224.39q.5-6.06,1.22-11.75l14.32.13c.41,3.61.79,7.28,1.15,11v.64Z"/><path class="cls-42" d="M489.93,187.75c.74,0,1.38,0,1.92,0a4.25,4.25,0,0,0,5.49.92l1.5-.92,6.25,3.84c-.13,1-.33,2.47-.58,4.22-.54,3.85-.78,5.79-1.13,7.37a55.1,55.1,0,0,0-1.12,5.49,38,38,0,0,0-.35,4.08,16.22,16.22,0,0,1-14.32-.13,21.74,21.74,0,0,1,.22-2.77,14.89,14.89,0,0,0,.17-1.79,8.26,8.26,0,0,0-.26-2.28c-.89-3.76,1.07-5.12.19-9.19a29.34,29.34,0,0,1-.76-3.71,8.9,8.9,0,0,1,.08-2.77A2.47,2.47,0,0,1,489.93,187.75Z"/><path class="cls-39" d="M468.31,182.83l.05-.75a4.9,4.9,0,0,0-.29-1.93l-1-2.66h0a1.07,1.07,0,0,0-.71,1.27l.26,1.08-.87,3.44,1.52.9h0A1.5,1.5,0,0,0,468.31,182.83Z"/><path class="cls-39" d="M493.3,185.63c-2.82-1.13-3.11-1.21-3.27-1.63a5.88,5.88,0,0,1,.37-2.25c.16-.65.31-1.19.43-1.57-.21-.05-.79-.21-.83-.5s.24-.36.59-.65a10.94,10.94,0,0,0,1.22-1.16l.14-.3a6,6,0,0,1,1.12-1.48,5.76,5.76,0,0,1,2.71-1.31,5.6,5.6,0,0,1,5.63,2.36,5.38,5.38,0,0,1,.29,5,10.88,10.88,0,0,1-2.26,2.76l0,0a.88.88,0,0,0-.17.16,2.16,2.16,0,0,1-1.1.31c-.68,0-.72-.16-1.11-.11-.7.07-.83.68-1.45.93S494.72,186.19,493.3,185.63Z"/><path class="cls-27" d="M499.44,184.86a10.88,10.88,0,0,0,2.26-2.76,5.38,5.38,0,0,0-.29-5,5.6,5.6,0,0,0-5.63-2.36,5.76,5.76,0,0,0-2.71,1.31,4.55,4.55,0,0,0-.52.57,8.22,8.22,0,0,0,1.28.21c2.09.22,2.49,0,2.83.38s.26,1.41,0,2.53a8.75,8.75,0,0,1-.65,1.87l.78.45c.4-.14.83-.23,1,0,.45.45-.78,1.91-.27,2.64.38.55,1.53.35,1.68.33a.88.88,0,0,1,.17-.16Z"/><circle class="cls-38" cx="236.08" cy="186.41" r="3.47"/><circle class="cls-17" cx="246.98" cy="186.41" r="3.47"/><circle class="cls-43" cx="257.89" cy="186.41" r="3.47"/><rect class="cls-44" x="241.37" y="207.63" width="32.68" height="3.72" rx="0.59"/><path class="cls-4" d="M509.24,20.69l14.34,7.71a1.46,1.46,0,0,1,0,2.57l-14.34,7.71a1.47,1.47,0,0,1-2.16-1.29V22A1.47,1.47,0,0,1,509.24,20.69Z"/><circle class="cls-45" cx="514.02" cy="29.69" r="18.87"/><path class="cls-46" d="M345.4,168.18a17.57,17.57,0,0,0-10.84,3.72,29.11,29.11,0,0,0-54-5.49,12.57,12.57,0,0,0-18.14,11.29,12.78,12.78,0,0,0,.15,2h109C361,179.67,357.26,168.18,345.4,168.18Z"/><path class="cls-44" d="M252.52,227a3.1,3.1,0,1,0,3.1,3.09A3.09,3.09,0,0,0,252.52,227Zm0,4.62a1.53,1.53,0,1,1,1.53-1.53A1.53,1.53,0,0,1,252.52,231.57Z"/><path class="cls-44" d="M324.24,268.72V220.57a1.69,1.69,0,0,0-1.69-1.69H243.06a1.69,1.69,0,0,0-1.69,1.69v48.15ZM264,233.7a.37.37,0,0,1-.49.35l-3.84-1.37v1.49a1.83,1.83,0,0,1-1.83,1.83H247.21a1.83,1.83,0,0,1-1.84-1.83v-8.25a1.84,1.84,0,0,1,1.84-1.84h10.61a1.83,1.83,0,0,1,1.83,1.84v1.41l3.84-1.37a.36.36,0,0,1,.49.34Z"/><path class="cls-47" d="M252.52,228.51a1.53,1.53,0,1,0,1.53,1.53A1.54,1.54,0,0,0,252.52,228.51Z"/><path class="cls-47" d="M263.49,226l-3.84,1.37v-1.41a1.83,1.83,0,0,0-1.83-1.84H247.21a1.84,1.84,0,0,0-1.84,1.84v8.25a1.83,1.83,0,0,0,1.84,1.83h10.61a1.83,1.83,0,0,0,1.83-1.83v-1.49l3.84,1.37a.37.37,0,0,0,.49-.35v-7.4A.36.36,0,0,0,263.49,226Zm-11,7.18a3.1,3.1,0,1,1,3.1-3.1A3.09,3.09,0,0,1,252.52,233.14Z"/><path class="cls-48" d="M296.92,267.18l-5.24-3.46a.63.63,0,0,0-.37-.12l-.75,0c.13.13.24.25.34.33a8.7,8.7,0,0,1-7.12,3.37,8.44,8.44,0,0,1-6-3.26,5.45,5.45,0,0,0,.46-.44l-.69,0a.63.63,0,0,0-.37.12L272,267.18a9.77,9.77,0,0,0-1.79,1.54h28.53A9.77,9.77,0,0,0,296.92,267.18Z"/><path class="cls-49" d="M290.56,263.56a6.17,6.17,0,0,1-1-1.56,5.5,5.5,0,0,1-.34-.92,6.2,6.2,0,0,1,.85-4.78h0c-1.86,2-4.13,3.36-6.12,3.36a8.71,8.71,0,0,1-5.61-2.79,5.3,5.3,0,0,1,1.2,4.32,5.12,5.12,0,0,1-.32,1,5,5,0,0,1-.9,1.39,5.45,5.45,0,0,1-.46.44,8.44,8.44,0,0,0,6,3.26,8.7,8.7,0,0,0,7.12-3.37C290.8,263.81,290.69,263.69,290.56,263.56Z"/><path class="cls-50" d="M273.88,251.6a12.26,12.26,0,0,0-.56-4,2.38,2.38,0,0,0-.81,1.48,2.09,2.09,0,0,0,0,.34s0,0,0,.06A2.42,2.42,0,0,0,273.88,251.6Z"/><path class="cls-50" d="M292.91,251.82a2.41,2.41,0,0,0,.74-4.68,12.17,12.17,0,0,1,0,1.35A9.82,9.82,0,0,1,292.91,251.82Z"/><path class="cls-50" d="M293.68,248.49a12.17,12.17,0,0,0,0-1.35h0a36.62,36.62,0,0,1-13.5-8.75,17.09,17.09,0,0,1-2.12,2,10.11,10.11,0,0,0-3.21,3.77,8.09,8.09,0,0,0-.36.94,11.87,11.87,0,0,0-.36,3.39,10.46,10.46,0,0,0,1.08,4,15.26,15.26,0,0,0,3.11,4.33,8.71,8.71,0,0,0,5.61,2.79c2,0,4.26-1.37,6.12-3.36a15,15,0,0,0,2.89-4.48A9.82,9.82,0,0,0,293.68,248.49Z"/><path class="cls-48" d="M296.42,252.25c-.35-1.41-1.36-2.38-1.1-3.94a9.71,9.71,0,0,0,.5-3.3,4.15,4.15,0,0,0-.5-1.73h0a10.43,10.43,0,0,0,.14-1.58,9.83,9.83,0,0,0-12.71-9.4,9.35,9.35,0,0,0-1.84.79,3.75,3.75,0,0,0-.62-.19,4.86,4.86,0,0,0-2.12.07,8.14,8.14,0,0,0-5.54,5.37,7.92,7.92,0,0,0-.11,4.22,2.63,2.63,0,0,0-.8,1,3.91,3.91,0,0,0-.37,1.61c0,1.47.75,2,1.06,3.14a2.87,2.87,0,0,1,.1.75,2.38,2.38,0,0,1,.81-1.48,12.26,12.26,0,0,1,.56,4,2.42,2.42,0,0,1-1.4-2.14c-.23,1.55-1.7,2.65-1.43,4.29.16,1,.92,2.18,3.53,3.37a4.12,4.12,0,0,0,0,2.46,4.61,4.61,0,0,0,1.68,2.2,3.56,3.56,0,0,0,2.91.39,5.12,5.12,0,0,0,.32-1,5.3,5.3,0,0,0-1.2-4.32,15.26,15.26,0,0,1-3.11-4.33,10.46,10.46,0,0,1-1.08-4,11.87,11.87,0,0,1,.36-3.39,8.09,8.09,0,0,1,.36-.94,10.11,10.11,0,0,1,3.21-3.77,17.09,17.09,0,0,0,2.12-2,36.62,36.62,0,0,0,13.5,8.75h0a2.41,2.41,0,0,1-.74,4.68A15,15,0,0,1,290,256.3h0a6.2,6.2,0,0,0-.85,4.78,5.5,5.5,0,0,0,.34.92,4.28,4.28,0,0,0,2.77-2,3.85,3.85,0,0,0,.29-2.45,4.05,4.05,0,0,0,2.75-1A4.57,4.57,0,0,0,296.42,252.25Z"/><path class="cls-51" d="M369.71,218.88h-35.1a1.69,1.69,0,0,0-1.68,1.69v48.15H371.4V220.57A1.69,1.69,0,0,0,369.71,218.88Zm-28.54,5.32h22.15a5.43,5.43,0,0,1,1.45,10.67l-.25.07a6.5,6.5,0,0,1-.9.12h0a2.9,2.9,0,0,0-1.33.46l-.06,0a2.75,2.75,0,0,0-1,1.28l-.2.51-.21-.51a2.78,2.78,0,0,0-2.57-1.75h-6.82l-.38,0h-9.81a5.44,5.44,0,1,1,0-10.87Zm2.44,28.61-.21.51-.2-.51a2.77,2.77,0,0,0-1-1.28l-.06,0a2.81,2.81,0,0,0-1.33-.47h0a5.27,5.27,0,0,1-.9-.12l-.25-.06A5.44,5.44,0,0,1,341,240.16h9.9a5.44,5.44,0,0,1,0,10.88l-4.75,0A2.77,2.77,0,0,0,343.61,252.81Zm21.57,12-.25.06a5.27,5.27,0,0,1-.9.13h0a2.83,2.83,0,0,0-1.33.46l-.06,0a2.69,2.69,0,0,0-1,1.28l-.2.51-.21-.51a2.77,2.77,0,0,0-2.57-1.75l-4.75,0a5.44,5.44,0,0,1,0-10.88h9.89a5.44,5.44,0,0,1,1.45,10.68Z"/><path class="cls-43" d="M341.17,235.07H351l.38,0h6.82a2.78,2.78,0,0,1,2.57,1.75l.21.51.2-.51a2.75,2.75,0,0,1,1-1.28l.06,0a2.9,2.9,0,0,1,1.33-.46h0a6.5,6.5,0,0,0,.9-.12l.25-.07a5.43,5.43,0,0,0-1.45-10.67H341.17a5.44,5.44,0,1,0,0,10.87Z"/><path class="cls-43" d="M356.37,245.6a5.44,5.44,0,0,0-5.44-5.44H341a5.44,5.44,0,0,0-1.44,10.68l.25.06a5.27,5.27,0,0,0,.9.12h0a2.81,2.81,0,0,1,1.33.47l.06,0a2.77,2.77,0,0,1,1,1.28l.2.51.21-.51a2.77,2.77,0,0,1,2.57-1.75l4.75,0A5.45,5.45,0,0,0,356.37,245.6Z"/><path class="cls-43" d="M363.73,254.14h-9.89a5.44,5.44,0,0,0,0,10.88l4.75,0a2.77,2.77,0,0,1,2.57,1.75l.21.51.2-.51a2.69,2.69,0,0,1,1-1.28l.06,0A2.83,2.83,0,0,1,364,265h0a5.27,5.27,0,0,0,.9-.13l.25-.06a5.44,5.44,0,0,0-1.45-10.68Z"/><path class="cls-14" d="M544.08,109.22c-7.16-4-11.79-10.39-11.79-17.55s4.63-13.52,11.79-17.56Z"/><g class="cls-52"><path class="cls-53" d="M389.4,134.55a6.11,6.11,0,0,0-1-3.66c-.76-1.2-2.5-3.19-7-4.22a52.14,52.14,0,0,0-1,5.37c-.11.85-.18,1.58-.24,2.51Z"/><path class="cls-54" d="M381.1,134.55a4.77,4.77,0,0,1-.62-2.51c0-.33.13-1,.36-2.2s.43-2.31.58-3a39.22,39.22,0,0,0,11.88-.71c2,2.6,4.11,5.4,6.21,8.41Z"/><path class="cls-55" d="M419.48,123.13l-.54,1.76a87.7,87.7,0,0,1-10-1.56c-2.38-.51-4.6-1.1-6.66-1.72a48.43,48.43,0,0,1-3.91-3.93,50,50,0,0,1-4.25-5.53,4.74,4.74,0,0,1-.52-1.06c-.06-.17-1-3,.55-4.09a3.2,3.2,0,0,1,3.88.65l7.29,10.17Z"/><path class="cls-5" d="M380.24,126.1a16.07,16.07,0,0,0,9.12,5.27,15.8,15.8,0,0,0,8.19-.69c.8-11.24,1.16-15.43,1.27-15.75a3.33,3.33,0,0,0,.19-.8c.08-.6,0-.88-.48-3.86-.36-2.19-.36-2.32-.53-2.61-.46-.81-2.07-1.8-4.32-2-.58-.07-6.2-.62-8.31,2.78a7.86,7.86,0,0,0-.81,4.54c0,1.36.42,5.36-.12,6.53a22.22,22.22,0,0,1-1.88,2.72A37.16,37.16,0,0,0,380.24,126.1Z"/><path class="cls-56" d="M399.78,98.22a9.07,9.07,0,0,1-.34,4.56c-.47,1.73-1.09,3.86-1.93,6.28a7.12,7.12,0,0,1-3.83-3.45c-1.87-4.14,2.09-8.49,3.67-9.41A1.54,1.54,0,0,1,398.5,96C399.33,96.19,399.61,97.47,399.78,98.22Z"/><path class="cls-55" d="M399.47,103.05a1.23,1.23,0,0,1-.42.15,3.93,3.93,0,0,1-.5.11L397,105.5a10.9,10.9,0,0,1-1.29-.24,8.38,8.38,0,0,1-2.88-1.28,5.59,5.59,0,0,1-1.57-1.48,4.63,4.63,0,0,1,7-6,3.83,3.83,0,0,1,1.2,2.49,2.6,2.6,0,0,1,0,.28,4.23,4.23,0,0,1-.07.53,5.77,5.77,0,0,0,0,2.23C399.44,102.54,399.64,102.89,399.47,103.05Z"/><path class="cls-55" d="M391.11,101a5.08,5.08,0,0,1-.32,4.69,5.69,5.69,0,0,0,2.19,1.87c.52.25,1,.49,1.48.24a1.45,1.45,0,0,0,.55-1.16c0-.38.09-.8.18-1.24a13.28,13.28,0,0,1,.41-1.5Z"/><path class="cls-56" d="M394.24,104.3c-.59,1.46-.75.54-1.12,3.21a7.4,7.4,0,0,1-4.65-.64,7.22,7.22,0,0,1-2.78-2.43c3.71-5.8,3.32-9.22,6.56-10.25a4.45,4.45,0,0,1,3.34.06c.9.22,2.62.65,3.08,1.91a2,2,0,0,1-.08,1.64,1.35,1.35,0,0,1-.48.42C397.18,98.74,395.46,101.32,394.24,104.3Z"/><path class="cls-34" d="M417.87,124.35l3.11,2.07a12.55,12.55,0,0,0,2,.51c.54.09,1,.13,1.29-.14a.89.89,0,0,0,.22-.34.55.55,0,0,0,.58,0,.54.54,0,0,0,.31-.49.52.52,0,0,0-.34-.45.61.61,0,0,0,.14-.37c0-.53-.94-1.07-2.33-1.36.75-.17,1.24-.57,1.24-1a.65.65,0,0,0-.11-.3l-1.89.27a4.21,4.21,0,0,0-1.18-.24,4.15,4.15,0,0,0-2,.42Z"/><path class="cls-57" d="M351.65,134.54c1.27-3,2.18-5.17,2.59-6.09a5.5,5.5,0,0,0,.48-1.71,7.62,7.62,0,0,0-.26-2.37,6.91,6.91,0,0,0-2.31-3.71,7.06,7.06,0,0,0-3.93-1.6,81.55,81.55,0,0,0-3.72,10.49c-.14.54-.77,2.57-1.28,5Z"/><path class="cls-58" d="M349.77,134.54v-.84c0-2.2-1.82-11-1.55-14.64,0-.28,5,1.22,5.5.72a2.21,2.21,0,0,1,.82-.51c1.15-.43,2.84,0,4.19.67s1.48,2.11,1.81,2.79a7.4,7.4,0,0,1,.8,2.25,72.6,72.6,0,0,1-.3,9.5Z"/><path class="cls-59" d="M327.21,109.45a21.15,21.15,0,0,1-3.25-.3,23.56,23.56,0,0,1-3-2.54c0-.21.39-.37.55-.3s-1-1.26-1-1.58.79,0,.79,0-.29-.91-.13-1,.63.12.73.31.12-.84.28-.85.25.07.5.57,1.48,2.14,1.83,2.17-.35-1-.35-1.38,0-1.07.16-1,1.13,1.51,1.41,1.73,2.12,1.53,2.12,1.53Z"/><path class="cls-60" d="M349.94,108.34c-2.79,1.32-5.59,2.6-6.53,3.13-1.43.79-3.92.69-10.05-.24-3-.45-5.43-.76-6.84-.94l.86-4,2.53.2,8.38.79c2.77-1.24,6.43-3.12,9.61-4.83S352.64,107.06,349.94,108.34Z"/><path class="cls-61" d="M348.56,102a12.41,12.41,0,0,0,1.31-.5,11.06,11.06,0,0,0,1.48-.8l3.95,0,2.09,1a12.56,12.56,0,0,0,2.48.88l.08,0a4.24,4.24,0,0,1,2.06,1.21,3.64,3.64,0,0,1,1,2.16h0c.31,2.67-1.24,6-1.24,6a16.17,16.17,0,0,0-1.25,7.46l.33,3.38-14.08-.22C347,106.51,347.78,102.22,348.56,102Z"/><path class="cls-62" d="M350.13,87.63a3,3,0,0,0-.23,1.28q3.68,10.77,5.87,10.48c.43-.06.81-.44,1.16-1.13.39-.44.92-1.07,1.51-1.86a9.28,9.28,0,0,0,1.78-2.94,5.36,5.36,0,0,0-.62-3.83,5.81,5.81,0,0,0-6-2.38,2.22,2.22,0,0,0-2.36-.94A2.29,2.29,0,0,0,350.13,87.63Z"/><path class="cls-59" d="M351.65,101.75a7.69,7.69,0,0,0,5.56-.19,6.17,6.17,0,0,1-.69-1.56,5.66,5.66,0,0,1-.19-2.06l-4.85.65Z"/><path class="cls-59" d="M350.56,89.59a13.81,13.81,0,0,0-.52,1.64,15.93,15.93,0,0,0-.43,2.27,5.84,5.84,0,0,1-.34.57c-.49.75-1,1.19-.86,1.37,0,0,.59.24.69.32.65.52,0,1.74.47,2.61.79,1.41,4.09.76,4.87.61a2.59,2.59,0,0,0,1.89-1,2.08,2.08,0,0,0,.28-1.16c-1.06,0-1.4-.23-1.5-.47-.28-.67,1.35-1.7,1-2.5a.64.64,0,0,0-.55-.4c-.41,0-.63.74-.83.68s-.14-.43-.14-.58c0-1.27.53-1.73.34-2.21s-.65-.45-1.69-.76A19.07,19.07,0,0,1,350.56,89.59Z"/><path class="cls-63" d="M354.05,100a10.2,10.2,0,0,0,2.41-.3c0,.09,0,.18.06.28a6.17,6.17,0,0,0,.69,1.56,7.69,7.69,0,0,1-5.56.19c0-.68-.07-1.36-.11-2A9.33,9.33,0,0,0,354.05,100Z"/><path class="cls-59" d="M373.44,89.28c-.76.21-1.52-.92-1.61-1.54a1.91,1.91,0,0,1,.49-1.48c.29-.37.86-.52,1.1-.74.48-.44,1.07-1.88,1.46-2s.18.39.31.42.11,0,.25,0,0,.54,0,.6c-.17.66-.68,2.48-.84,2.8C374.18,88.23,374.21,89.07,373.44,89.28Z"/><path class="cls-59" d="M372.35,84.72a2.29,2.29,0,0,0-.46.93c-.12.42-.35,2.16.1,2.4s.52-.12.74-.33.08-1,.19-1.24a2.11,2.11,0,0,0,.14-.3c.05-.13.24-.31.13-.45s-.32.14-.53,0,.19-1,0-1.17S372.52,84.55,372.35,84.72Z"/><path class="cls-59" d="M375.52,86c0,.24-.5.89-.59,1-.25.44-.94,2-1.22,2.07s0-.37,0-.47c0-.83,1-3.88,1.67-4S375.51,85.76,375.52,86Z"/><path class="cls-59" d="M374.12,88.51c.19.64.39,1.28.57,1.93h-2.26c-.2-.9-.44-1.81-.62-2.72C372.58,88,373.35,88.25,374.12,88.51Z"/><path class="cls-64" d="M355.52,101.68a41.1,41.1,0,0,1,5.82-.47l8.77-.14c-.43-1.87,1.61-10.1,1.1-11.94,1.33-.51,2.31.14,3.64-.38,1,2-.14,12.68.28,14.84a1.55,1.55,0,0,1-1.07,1.79c-1.26.37-2.56.73-3.88,1.09-1.6.43-3.18.84-4.72,1.21l-4.87,1.83Z"/></g><rect class="cls-36" x="400.68" y="120.71" width="19.56" height="19.56" rx="4.16" transform="matrix(1, 0.08, -0.08, 1, 12.42, -34.03)"/><path class="cls-55" d="M398.62,135.12l1.24,3.15a11.39,11.39,0,0,0,1.32,1.42c.36.33.69.58,1.07.52a.79.79,0,0,0,.37-.15.5.5,0,0,0,.42.33.54.54,0,0,0,.52-.23.45.45,0,0,0,0-.52.7.7,0,0,0,.32-.21c.3-.42-.13-1.3-1.05-2.21.69.23,1.3.16,1.51-.13a.5.5,0,0,0,.08-.29l-1.62-.73a3.21,3.21,0,0,0-.79-.76,3.85,3.85,0,0,0-1.78-.67Z"/><path class="cls-55" d="M400.23,134.64l-1.43,1.16a87.06,87.06,0,0,1-7.44-6.87c-1.69-1.75-3.21-3.48-4.58-5.14a49.69,49.69,0,0,1-1-5.44,51,51,0,0,1-.44-7,4.42,4.42,0,0,1,.16-1.18c0-.17.85-3,2.74-3.09a3.22,3.22,0,0,1,2.85,2.7q.19,6.25.38,12.51Z"/><rect class="cls-65" x="368.53" y="64.81" width="13.7" height="10.34" transform="translate(-0.47 137.41) rotate(-20.73)"/><line class="cls-66" x1="375.1" y1="88.57" x2="366.92" y2="66.97"/><path class="cls-67" d="M576.82,77.94c6,10.49-1.62,41.37-1.62,41.37s-30.41-9.26-36.38-19.75a21.86,21.86,0,0,1,38-21.62Z"/><circle class="cls-46" cx="557.53" cy="88.69" r="8.26"/><path class="cls-39" d="M500.32,222.24l-1.93,3.59a.46.46,0,0,0,.32.77.59.59,0,0,0,.93.61.53.53,0,0,0,.27.35c.26.12.69-.06.93-.52a.69.69,0,0,0,.46.17.75.75,0,0,0,.54-.24c1-1.13,1.63-1.79,1.63-1.79a3.92,3.92,0,0,0,.7-1.61c0-.21.14-.44.23-.78s.42-1.2.44-1.4-.27.05-2-.54Z"/><path class="cls-39" d="M501.69,220.72l-.67.35a4.74,4.74,0,0,0-1.49,1.25l-1.76,2.24h0a1.08,1.08,0,0,0,1.45-.05l.78-.79,3.4-1,0-1.77h0A1.48,1.48,0,0,0,501.69,220.72Z"/><path class="cls-39" d="M501.26,206.7A2.06,2.06,0,0,0,502,208a32.15,32.15,0,0,0-.4,4.55c-.05,3,.34,4.52.17,7.79-.06,1.25-.18,2.26-.27,2.89l3-.77A89.77,89.77,0,0,0,507.62,212a12.38,12.38,0,0,0,.35-3.42c-.05-1.39-.17-5.06-2.05-5.69S501,204.78,501.26,206.7Z"/><path class="cls-68" d="M503.78,191.36a3,3,0,0,1,2.48.57,3.64,3.64,0,0,1,1.17,2.27c.69,3.58.29,4.81.82,7.73a9.94,9.94,0,0,1,.24,4.66,8.29,8.29,0,0,1-.41,1.25,5.91,5.91,0,0,0-1.68-.42,6.52,6.52,0,0,0-1.91.13,7.47,7.47,0,0,0-2.82,1.25,4.31,4.31,0,0,1-.49-1.7,10.62,10.62,0,0,1,.32-2.29,11.58,11.58,0,0,0-.18-2.64c-.25-3.81-.36-5.75.09-7.37C501.49,194.5,502.3,191.67,503.78,191.36Z"/><path class="cls-69" d="M567.3,159.5c.67.78-1,2.22-.36,3s2.37-.65,3,.14-1,2.23-.36,3,2.37-.65,3,.14-1,2.23-.36,3"/><path class="cls-70" d="M577.83,147.45c-.79.67-2.22-1-3-.38s.63,2.37-.17,3-2.22-1-3-.39.62,2.38-.17,3-2.22-1.05-3-.38"/><circle class="cls-24" cx="563.29" cy="165.93" r="1.33"/><circle class="cls-46" cx="581.33" cy="159.35" r="1.33"/><circle class="cls-5" cx="542.97" cy="168.63" r="1.33"/><rect class="cls-4" x="544.81" y="146.71" width="3.68" height="3.68" transform="translate(3.78 310.39) rotate(-31.8)"/><rect class="cls-20" x="379.73" y="221.81" width="60.13" height="46.91"/><rect class="cls-4" x="554.15" y="173.23" width="3.68" height="3.68" transform="translate(-8.78 319.29) rotate(-31.8)"/><rect class="cls-24" x="579.49" y="164.09" width="3.68" height="3.68" transform="translate(52.94 459.66) rotate(-45)"/><path class="cls-71" d="M532.54,152.94c.17,1-2,1.38-1.86,2.4s2.37.66,2.54,1.68-2,1.38-1.86,2.4,2.37.66,2.54,1.68-2,1.39-1.86,2.41"/><path class="cls-72" d="M548.78,155a3.56,3.56,0,1,1-5.22,4.84"/><circle class="cls-46" cx="537.29" cy="145.27" r="1.33"/><path class="cls-73" d="M414.86,130l-1.93-.49-.82-.21,1.68-4.1a.37.37,0,0,0-.58-.43l-6.84,5.6a.37.37,0,0,0,.14.65l2.75.7-1.68,4.1a.37.37,0,0,0,.57.43l6.85-5.6A.38.38,0,0,0,414.86,130Z"/><polygon class="cls-12" points="229.79 178.4 213.16 192.66 229.46 200.3 229.79 178.4"/><path class="cls-74" d="M183,249.71h18a0,0,0,0,1,0,0v10.75a7.94,7.94,0,0,1-7.94,7.94H190.9a7.94,7.94,0,0,1-7.94-7.94V249.71a0,0,0,0,1,0,0Z" transform="translate(128.11 -56.98) rotate(25.12)"/><rect class="cls-75" x="199.62" y="193.65" width="18" height="59.78" transform="translate(114.61 -67.41) rotate(25.12)"/><polygon class="cls-76" points="229.68 186.22 229.79 178.4 223.85 183.49 229.68 186.22"/><rect class="cls-77" x="200.04" y="191.74" width="9" height="59.78" transform="translate(113.41 -65.86) rotate(25.12)"/><line class="cls-1" x1="218.55" y1="202" x2="205" y2="231.47"/><path class="cls-78" d="M412.3,230.88a2.23,2.23,0,0,0-2.23-2.23h-2.31a2.23,2.23,0,0,0-2.23,2.23v2.71A13.26,13.26,0,0,0,402,235l-1.92-1.92a2.24,2.24,0,0,0-3.16,0l-1.63,1.63a2.24,2.24,0,0,0,0,3.16l1.92,1.91a13.33,13.33,0,0,0-1.45,3.5h-2.71a2.23,2.23,0,0,0-2.23,2.23v2.31a2.23,2.23,0,0,0,2.23,2.23h2.71a13.41,13.41,0,0,0,1.45,3.49l-1.92,1.92a2.23,2.23,0,0,0,0,3.15l1.63,1.64a2.24,2.24,0,0,0,3.16,0l1.92-1.92a13.26,13.26,0,0,0,3.49,1.45v2.71a2.23,2.23,0,0,0,2.23,2.23h2.31a2.23,2.23,0,0,0,2.23-2.23v-2.71a13.26,13.26,0,0,0,3.49-1.45l1.92,1.92a2.23,2.23,0,0,0,3.15,0l1.64-1.64a2.23,2.23,0,0,0,0-3.15l-1.92-1.92a13.41,13.41,0,0,0,1.45-3.49h2.71a2.23,2.23,0,0,0,2.23-2.23v-2.31a2.23,2.23,0,0,0-2.23-2.23H422a13.33,13.33,0,0,0-1.45-3.5l1.92-1.91a2.24,2.24,0,0,0,0-3.16l-1.64-1.63a2.23,2.23,0,0,0-3.15,0L415.79,235a13.26,13.26,0,0,0-3.49-1.45Zm-3.39,9.87a5.95,5.95,0,1,1-6,5.95A6,6,0,0,1,408.91,240.75Z"/><path class="cls-6" d="M438.38,221.81c-4,3.69-10.39,6.08-17.55,6.08s-13.52-2.39-17.56-6.08Z"/><path class="cls-46" d="M658,253.46a23.57,23.57,0,0,0-14.54,5,39,39,0,0,0-72.39-7.37,16.87,16.87,0,0,0-24.33,15.14,17.77,17.77,0,0,0,.2,2.65H693.06C678.92,268.87,673.89,253.46,658,253.46Z"/></g></g></g></svg>